<?xml version="1.0" encoding="utf-8" ?>
<svg xmlns="http://www.w3.org/2000/svg" xmlns:xlink="http://www.w3.org/1999/xlink" width="64" height="64">
	<rect fill="#21AAEA" width="64" height="64"/>
	<path fill="white" d="M19.7109 43.5L19.7109 24.4688L12.9141 24.4688L12.9141 20.5938L31.1172 20.5938L31.1172 24.4688L24.3359 24.4688L24.3359 43.5L19.7109 43.5ZM34.1016 43.5L34.1016 20.5938L41.5234 20.5938Q45.7422 20.5938 47.0234 20.9375Q48.9922 21.4531 50.3203 23.1797Q51.6484 24.9062 51.6484 27.6406Q51.6484 29.75 50.8828 31.1875Q50.1172 32.625 48.9375 33.4453Q47.7578 34.2656 46.5391 34.5312Q44.8828 34.8594 41.7422 34.8594L38.7266 34.8594L38.7266 43.5L34.1016 43.5ZM38.7266 24.4688L38.7266 30.9688L41.2578 30.9688Q43.9922 30.9688 44.9141 30.6094Q45.8359 30.25 46.3594 29.4844Q46.8828 28.7188 46.8828 27.7031Q46.8828 26.4531 46.1484 25.6406Q45.4141 24.8281 44.2891 24.625Q43.4609 24.4688 40.9609 24.4688L38.7266 24.4688Z"/>
</svg>
